<svg width="20" height="20" viewBox="0 0 20 20" fill="none" xmlns="http://www.w3.org/2000/svg">
<path d="M10.4762 17.1429C8.96929 17.1429 7.49623 16.696 6.24328 15.8588C4.99034 15.0216 4.01378 13.8317 3.43712 12.4395C2.86045 11.0473 2.70957 9.51538 3.00355 8.03743C3.29753 6.55948 4.02317 5.2019 5.08872 4.13636C6.15426 3.07081 7.51185 2.34517 8.9898 2.05119C10.4677 1.7572 11.9997 1.90809 13.3919 2.48475C14.7841 3.06142 15.974 4.03797 16.8112 5.29092C17.6484 6.54386 18.0952 8.01693 18.0952 9.52384C18.0952 11.5445 17.2925 13.4825 15.8637 14.9113C14.4348 16.3402 12.4969 17.1429 10.4762 17.1429ZM10.4762 2.99322C9.18456 2.99322 7.92194 3.37624 6.84798 4.09383C5.77403 4.81142 4.93699 5.83137 4.4427 7.02468C3.94841 8.21799 3.81908 9.53108 4.07107 10.7979C4.32305 12.0647 4.94503 13.2284 5.85836 14.1417C6.77168 15.055 7.93532 15.677 9.20214 15.929C10.469 16.1809 11.782 16.0516 12.9754 15.5573C14.1687 15.063 15.1886 14.226 15.9062 13.152C16.6238 12.0781 17.0068 10.8155 17.0068 9.52384C17.0068 7.79181 16.3188 6.13072 15.094 4.906C13.8693 3.68127 12.2082 2.99322 10.4762 2.99322Z" fill="#004B91"/>
<path d="M12.566 13.3333L9.5238 10.139V4.7619H10.6122V9.66476L13.3333 12.5276L12.566 13.3333Z" fill="#004B91"/>
</svg>
