<?xml version="1.0" encoding="utf-8"?><svg width="48" height="48" fill="none" xmlns="http://www.w3.org/2000/svg" viewBox="0 0 48 48"><path fill-rule="evenodd" clip-rule="evenodd" d="M9.581 7C8.708 7 8 7.739 8 8.65c0 .911.708 1.65 1.581 1.65h.747c.713 0 1.338.498 1.525 1.216l.658 2.518 3.394 12.987V30.1c0 1.144.372 2.198.997 3.036a4.212 4.212 0 00-.997 2.739c0 2.278 1.77 4.125 3.953 4.125s3.953-1.847 3.953-4.125c0-.282-.028-.558-.08-.825h4.902a4.323 4.323 0 00-.08.825c0 2.278 1.77 4.125 3.953 4.125s3.953-1.847 3.953-4.125c0-.542-.1-1.06-.282-1.534.178-.267.282-.591.282-.941 0-.911-.708-1.65-1.581-1.65h-14.23c-.873 0-1.58-.739-1.58-1.65v-1.65H35.25c1.426 0 2.676-.996 3.051-2.432l2.585-9.9c.548-2.1-.966-4.168-3.051-4.168H15.244l-.34-1.302C14.341 8.494 12.467 7 10.328 7h-.747zm22.925 28.05c-.436 0-.79.37-.79.825 0 .456.354.825.79.825.437 0 .79-.37.79-.825 0-.456-.353-.825-.79-.825zm2.745-9.9H18.694l-2.587-9.9h21.729l-2.585 9.9zm-15.393 9.9c-.437 0-.79.37-.79.825 0 .456.353.825.79.825.436 0 .79-.37.79-.825 0-.456-.354-.825-.79-.825z" fill="#fff"/></svg>