<?xml version="1.0" encoding="utf-8"?><svg width="82" height="82" fill="none" xmlns="http://www.w3.org/2000/svg" viewBox="0 0 82 82"><circle cx="41" cy="41" r="40.5" stroke="#333"/><g clip-path="url(#lclip0_5_224)" fill="#333"><path d="M34.333 57.667a3.362 3.362 0 01-2.356-.977l-10-10A3.362 3.362 0 0121 44.333c0-.876.357-1.735.977-2.356l15-15A3.362 3.362 0 0139.333 26h10c.215 0 .419.025.619.075 1.516.232 2.715 1.638 2.715 3.258v10c0 .877-.357 1.735-.977 2.357l-15 15a3.362 3.362 0 01-2.357.977zm5-30c-.438 0-.866.178-1.178.488l-15 15c-.31.312-.488.74-.488 1.178 0 .439.178.867.488 1.179l10 10c.622.621 1.733.621 2.355 0l15-15c.312-.312.49-.74.49-1.179v-10a1.65 1.65 0 00-1.378-1.626 1.129 1.129 0 00-.289-.04h-10z"/><path d="M57.55 61H42.783a3.514 3.514 0 01-2.43-.968 3.317 3.317 0 01-1.02-2.365v-5.634a.84.84 0 01.244-.59L50.51 40.51c.312-.31.49-.738.49-1.177v-10a1.65 1.65 0 00-1.378-1.626.833.833 0 01-.025-1.644c1.083-.2 2.21.137 3 .905l7.38 7.08A3.32 3.32 0 0161 36.417v21.25a3.316 3.316 0 01-1.02 2.365 3.513 3.513 0 01-2.43.968zM41 52.378v5.289c0 .426.187.853.513 1.168.344.323.799.502 1.27.498H57.55c.48 0 .942-.181 1.27-.498a1.64 1.64 0 00.513-1.168v-21.25a1.64 1.64 0 00-.513-1.169l-6.153-5.903v9.988c0 .877-.357 1.735-.977 2.357L41 52.378z"/><path d="M46.833 34.333a2.503 2.503 0 01-2.5-2.5c0-1.378 1.122-2.5 2.5-2.5 1.379 0 2.5 1.122 2.5 2.5 0 1.379-1.121 2.5-2.5 2.5zm0-3.333a.833.833 0 100 1.666.833.833 0 000-1.666z"/><path d="M56.833 32.667a.833.833 0 01-.833-.834v-5a4.172 4.172 0 00-4.167-4.166 4.172 4.172 0 00-4.166 4.166v3.334a.833.833 0 01-1.667 0v-3.334A5.84 5.84 0 0151.833 21a5.84 5.84 0 015.834 5.833v5a.833.833 0 01-.834.834z"/></g><defs><clipPath id="lclip0_5_224"><path fill="#fff" transform="translate(21 21)" d="M0 0h40v40H0z"/></clipPath></defs></svg>