<?xml version="1.0" encoding="utf-8"?><svg width="20" height="20" fill="none" xmlns="http://www.w3.org/2000/svg" viewBox="0 0 20 20"><path d="M17.312 12.523l-3.69-1.653a1.095 1.095 0 00-1.082.128l-1.93 1.64a.146.146 0 01-.13.005c-1.24-.599-2.525-1.875-3.125-3.098a.15.15 0 010-.131L9 7.461a1.094 1.094 0 00.12-1.082L7.48 2.695A1.094 1.094 0 006.34 2.04a4.237 4.237 0 00-3.685 4.21c0 6.117 4.977 11.094 11.094 11.094a4.238 4.238 0 004.21-3.685 1.094 1.094 0 00-.648-1.136zm-3.562 3.883c-5.6 0-10.156-4.556-10.156-10.156a3.3 3.3 0 012.865-3.281h.018a.156.156 0 01.143.102l1.649 3.68a.156.156 0 010 .131L6.619 8.84a1.094 1.094 0 00-.105 1.117c.694 1.419 2.124 2.837 3.558 3.53a1.095 1.095 0 001.12-.11l1.928-1.641a.152.152 0 01.125-.008l3.69 1.654a.157.157 0 01.096.156 3.3 3.3 0 01-3.281 2.868z" fill="#004B91"/></svg>