<?xml version="1.0" encoding="utf-8"?><svg width="82" height="82" fill="none" xmlns="http://www.w3.org/2000/svg" viewBox="0 0 82 82"><circle cx="41" cy="41" r="40.5" stroke="#333"/><path d="M52.09 48.81c1.498-.016 2.806-1.065 3.19-2.569l3.692-14.263a.876.876 0 00-.588-1.066.951.951 0 00-.212-.032H30.406l-1.889-7.238a.836.836 0 00-.8-.642H23v1.732h4.06l1.826 7.075a.618.618 0 000 .17l3.761 14.313c.024.114.063.236.102.35l1.27 4.797c-1.223.675-2.053 2.009-2.053 3.546 0 2.22 1.731 4.017 3.871 4.017 2.14 0 3.871-1.797 3.871-4.017 0-.691-.172-1.35-.47-1.92-.07-.13-.14-.26-.227-.39h9.851a4.124 4.124 0 00-.705 2.31c0 2.22 1.732 4.017 3.871 4.017 2.14 0 3.872-1.797 3.872-4.017 0-1.05-.384-2-1.02-2.716a3.704 3.704 0 00-2.805-1.326H35.688l-.588-2.236c.251.065.51.106.768.106h16.223zm-.054 3.863c1.23 0 2.226 1.033 2.226 2.31 0 1.277-.996 2.31-2.226 2.31s-2.226-1.033-2.226-2.31c0-1.277.996-2.31 2.226-2.31zm-16.199 0c1.23 0 2.218 1.041 2.218 2.31 0 1.277-.995 2.31-2.226 2.31-1.23 0-2.218-1.033-2.218-2.31 0-1.277.996-2.31 2.226-2.31zm-1.49-6.692l-1.872-7.108-1.67-6.245h26.247l-3.394 13.223c-.188.756-.838 1.285-1.59 1.3H35.852a1.7 1.7 0 01-1.505-1.17z" fill="#333"/></svg>