<svg width="27" height="27" viewBox="0 0 27 27" fill="none" xmlns="http://www.w3.org/2000/svg">
<path d="M9.28125 22.7812C9.74724 22.7812 10.125 22.4035 10.125 21.9375C10.125 21.4715 9.74724 21.0938 9.28125 21.0938C8.81526 21.0938 8.4375 21.4715 8.4375 21.9375C8.4375 22.4035 8.81526 22.7812 9.28125 22.7812Z" stroke="white" stroke-width="1.6875" stroke-linecap="round" stroke-linejoin="round"/>
<path d="M21.0938 22.7812C21.5597 22.7812 21.9375 22.4035 21.9375 21.9375C21.9375 21.4715 21.5597 21.0938 21.0938 21.0938C20.6278 21.0938 20.25 21.4715 20.25 21.9375C20.25 22.4035 20.6278 22.7812 21.0938 22.7812Z" stroke="white" stroke-width="1.6875" stroke-linecap="round" stroke-linejoin="round"/>
<path d="M2.53125 4.21875H5.90625L8.4375 18.5625H21.9375" stroke="white" stroke-width="1.6875" stroke-linecap="round" stroke-linejoin="round"/>
<path d="M8.4375 15.1875H21.5916C21.6891 15.1876 21.7837 15.1538 21.8592 15.092C21.9347 15.0302 21.9864 14.9441 22.0055 14.8484L23.5243 7.25467C23.5365 7.19344 23.535 7.13025 23.5199 7.06966C23.5048 7.00907 23.4764 6.9526 23.4368 6.90432C23.3972 6.85604 23.3474 6.81715 23.2909 6.79046C23.2344 6.76378 23.1728 6.74996 23.1103 6.75H6.75" stroke="white" stroke-width="1.6875" stroke-linecap="round" stroke-linejoin="round"/>
</svg>
