<svg width="48" height="48" viewBox="0 0 48 48" fill="none" xmlns="http://www.w3.org/2000/svg">
<path fill-rule="evenodd" clip-rule="evenodd" d="M23.4142 8.58578C24.1952 9.36684 24.1952 10.6332 23.4142 11.4142L12.8284 22H40C41.1046 22 42 22.8954 42 24C42 25.1046 41.1046 26 40 26H12.8284L23.4142 36.5858C24.1952 37.3668 24.1952 38.6332 23.4142 39.4142C22.6332 40.1952 21.3668 40.1952 20.5858 39.4142L6.58578 25.4142C6.21072 25.0392 6 24.5304 6 24C6 23.4696 6.21072 22.9608 6.58578 22.5858L20.5858 8.58578C21.3668 7.80474 22.6332 7.80474 23.4142 8.58578Z" fill="white"/>
</svg>
