<svg width="20" height="20" viewBox="0 0 20 20" fill="none" xmlns="http://www.w3.org/2000/svg"><path d="M10.002 6.29c-.58 0-1.135.24-1.545.67-.41.428-.64 1.01-.64 1.617s.23 1.188.64 1.617c.41.43.965.67 1.545.67s1.135-.24 1.545-.67c.41-.429.64-1.01.64-1.617s-.23-1.189-.64-1.618a2.136 2.136 0 00-1.545-.67zM8.727 8.576c0-.354.135-.693.374-.944.239-.25.563-.39.9-.39.339 0 .663.14.902.39.24.25.373.59.373.944s-.134.693-.373.943-.563.391-.901.391c-.338 0-.662-.14-.901-.39a1.367 1.367 0 01-.374-.944zm6.007 4.003l-3.674 4.083c-.136.152-.3.272-.482.355a1.401 1.401 0 01-1.156 0 1.459 1.459 0 01-.482-.355L5.266 12.58h.014l-.006-.008-.008-.01A6.636 6.636 0 013.81 8.387c0-3.58 2.771-6.481 6.19-6.481 3.419 0 6.19 2.902 6.19 6.481a6.636 6.636 0 01-1.456 4.177l-.008.01-.006.007h.014zm-.708-.617a5.66 5.66 0 001.254-3.577c0-3.053-2.364-5.528-5.28-5.528-2.916 0-5.28 2.475-5.28 5.528a5.658 5.658 0 001.254 3.577l.112.138 3.516 3.908a.546.546 0 00.398.18.524.524 0 00.398-.18l3.516-3.908.112-.138z" fill="#004B91"/></svg>