<svg width="48" height="48" viewBox="0 0 48 48" fill="none" xmlns="http://www.w3.org/2000/svg"><path d="M39.254 21.017a1.5 1.5 0 011.246 1.479v3.009a1.5 1.5 0 01-1.246 1.478l-2.598.447a13.016 13.016 0 01-1.28 3.096l1.52 2.152a1.5 1.5 0 01-.165 1.925l-2.128 2.128a1.5 1.5 0 01-1.925.164l-2.151-1.518a13.05 13.05 0 01-3.097 1.28l-.447 2.598a1.5 1.5 0 01-1.479 1.245h-3.009a1.5 1.5 0 01-1.478-1.246l-.447-2.598a13.015 13.015 0 01-3.096-1.28l-2.152 1.519a1.5 1.5 0 01-1.925-.165l-2.128-2.127a1.5 1.5 0 01-.165-1.926l1.52-2.151a13.017 13.017 0 01-1.28-3.097l-2.598-.447A1.498 1.498 0 017.5 25.505v-3.01a1.5 1.5 0 011.246-1.478l2.598-.447a13.015 13.015 0 011.28-3.096l-1.52-2.152a1.5 1.5 0 01.165-1.925l2.127-2.128a1.5 1.5 0 011.926-.165l2.152 1.52a13.044 13.044 0 013.096-1.28l.447-2.598A1.5 1.5 0 0122.496 7.5h3.009a1.5 1.5 0 011.478 1.246l.447 2.598c1.096.296 2.134.726 3.096 1.28l2.152-1.52a1.5 1.5 0 011.925.165l2.128 2.127a1.5 1.5 0 01.164 1.926l-1.519 2.152c.553.962.984 2 1.28 3.096l2.598.447zM24 30a6 6 0 100-12 6 6 0 000 12z" fill="#fff"/></svg>