<svg width="64" height="64" viewBox="0 0 64 64" fill="none" xmlns="http://www.w3.org/2000/svg">
<path d="M49.7779 42.6666C51.7414 42.6666 53.3334 44.2586 53.3334 46.2222C53.3334 48.1857 51.7414 49.7777 49.7779 49.7777C48.7094 49.7777 15.2907 49.7777 14.2223 49.7777C12.2587 49.7777 10.6667 48.1857 10.6667 46.2222C10.6667 44.2586 12.2587 42.6666 14.2223 42.6666C15.2907 42.6666 48.7094 42.6666 49.7779 42.6666ZM49.7779 28.4444C51.7414 28.4444 53.3334 30.0364 53.3334 31.9999C53.3334 33.9635 51.7414 35.5555 49.7779 35.5555C48.7094 35.5555 15.2907 35.5555 14.2223 35.5555C12.2587 35.5555 10.6667 33.9635 10.6667 31.9999C10.6667 30.0364 12.2587 28.4444 14.2223 28.4444C15.2907 28.4444 48.7094 28.4444 49.7779 28.4444ZM49.7779 14.2222C51.7414 14.2222 53.3334 15.8142 53.3334 17.7777C53.3334 19.7413 51.7414 21.3333 49.7779 21.3333C48.7094 21.3333 15.2907 21.3333 14.2223 21.3333C12.2587 21.3333 10.6667 19.7413 10.6667 17.7777C10.6667 15.8142 12.2587 14.2222 14.2223 14.2222C15.2907 14.2222 48.7094 14.2222 49.7779 14.2222Z" fill="white"/>
</svg>
