<svg width="82" height="82" viewBox="0 0 82 82" fill="none" xmlns="http://www.w3.org/2000/svg"><circle cx="41" cy="41" r="40.5" stroke="#333"/><path fill-rule="evenodd" clip-rule="evenodd" d="M40.546 23.13a.856.856 0 01.908 0l3.652 2.28a16.285 16.285 0 006.61 2.35l3.105.39a.857.857 0 01.75.85v11.07a18 18 0 01-8.46 15.263l-5.657 3.537a.856.856 0 01-.908 0l-5.657-3.537a18 18 0 01-8.46-15.264V29a.857.857 0 01.75-.85l3.105-.39a16.286 16.286 0 006.612-2.348l3.65-2.282zM41 24.87l-3.196 1.997a18 18 0 01-7.308 2.597l-2.353.291V40.07a16.286 16.286 0 007.654 13.809L41 57.13l5.203-3.252a16.285 16.285 0 007.654-13.81v-10.31l-2.354-.293a18 18 0 01-7.308-2.598L41 24.87z" fill="#333"/><path fill-rule="evenodd" clip-rule="evenodd" d="M47.607 36.464l-6.857 6.857a.857.857 0 01-1.212 0l-3.429-3.428 1.212-1.212 2.822 2.821 6.252-6.252 1.212 1.214z" fill="#333"/></svg>