<?xml version="1.0" encoding="utf-8"?><svg viewBox="0 0 362 82" xmlns="http://www.w3.org/2000/svg" xmlns:xlink="http://www.w3.org/1999/xlink"><style>:root>svg{display:none}:root>svg:target{display:block}</style><svg fill="none" viewBox="0 0 20 20" id="README" xmlns="http://www.w3.org/2000/svg"><path d="M17.312 12.523l-3.69-1.653a1.095 1.095 0 00-1.082.128l-1.93 1.64a.146.146 0 01-.13.005c-1.24-.599-2.525-1.875-3.125-3.098a.15.15 0 010-.131L9 7.461a1.094 1.094 0 00.12-1.082L7.48 2.695A1.094 1.094 0 006.34 2.04a4.237 4.237 0 00-3.685 4.21c0 6.117 4.977 11.094 11.094 11.094a4.238 4.238 0 004.21-3.685 1.094 1.094 0 00-.648-1.136zm-3.562 3.883c-5.6 0-10.156-4.556-10.156-10.156a3.3 3.3 0 012.865-3.281h.018a.156.156 0 01.143.102l1.649 3.68a.156.156 0 010 .131L6.619 8.84a1.094 1.094 0 00-.105 1.117c.694 1.419 2.124 2.837 3.558 3.53a1.095 1.095 0 001.12-.11l1.928-1.641a.152.152 0 01.125-.008l3.69 1.654a.157.157 0 01.096.156 3.3 3.3 0 01-3.281 2.868z" fill="#004B91"/></svg><svg fill="none" viewBox="0 0 41 41" id="arrownext" xmlns="http://www.w3.org/2000/svg"><circle cx="20.5" cy="20.5" r="20" fill="#fff" stroke="#000"/><path d="M19 26l5-5-5-5" stroke="#333" stroke-width="1.5" stroke-linecap="round" stroke-linejoin="round"/></svg><svg fill="none" viewBox="0 0 41 41" id="arrowprev" xmlns="http://www.w3.org/2000/svg"><circle cx="20.5" cy="20.5" r="20" transform="rotate(-180 20.5 20.5)" fill="#fff" stroke="#000"/><path d="M22 15l-5 5 5 5" stroke="#333" stroke-width="1.5" stroke-linecap="round" stroke-linejoin="round"/></svg><svg fill="none" viewBox="0 0 27 27" id="cart" xmlns="http://www.w3.org/2000/svg"><path d="M9.281 22.781a.844.844 0 100-1.687.844.844 0 000 1.687zM21.094 22.781a.844.844 0 100-1.687.844.844 0 000 1.687zM2.531 4.219h3.375l2.532 14.343h13.5" stroke="#fff" stroke-width="1.688" stroke-linecap="round" stroke-linejoin="round"/><path d="M8.438 15.188h13.154a.422.422 0 00.414-.34l1.518-7.593a.423.423 0 00-.414-.505H6.75" stroke="#fff" stroke-width="1.688" stroke-linecap="round" stroke-linejoin="round"/></svg><svg fill="none" viewBox="0 0 48 48" id="cart-header" xmlns="http://www.w3.org/2000/svg"><path fill-rule="evenodd" clip-rule="evenodd" d="M9.581 7C8.708 7 8 7.739 8 8.65c0 .911.708 1.65 1.581 1.65h.747c.713 0 1.338.498 1.525 1.216l.658 2.518 3.394 12.987V30.1c0 1.144.372 2.198.997 3.036a4.212 4.212 0 00-.997 2.739c0 2.278 1.77 4.125 3.953 4.125s3.953-1.847 3.953-4.125c0-.282-.028-.558-.08-.825h4.902a4.323 4.323 0 00-.08.825c0 2.278 1.77 4.125 3.953 4.125s3.953-1.847 3.953-4.125c0-.542-.1-1.06-.282-1.534.178-.267.282-.591.282-.941 0-.911-.708-1.65-1.581-1.65h-14.23c-.873 0-1.58-.739-1.58-1.65v-1.65H35.25c1.426 0 2.676-.996 3.051-2.432l2.585-9.9c.548-2.1-.966-4.168-3.051-4.168H15.244l-.34-1.302C14.341 8.494 12.467 7 10.328 7h-.747zm22.925 28.05c-.436 0-.79.37-.79.825 0 .456.354.825.79.825.437 0 .79-.37.79-.825 0-.456-.353-.825-.79-.825zm2.745-9.9H18.694l-2.587-9.9h21.729l-2.585 9.9zm-15.393 9.9c-.437 0-.79.37-.79.825 0 .456.353.825.79.825.436 0 .79-.37.79-.825 0-.456-.354-.825-.79-.825z" fill="#fff"/></svg><svg fill="none" viewBox="0 0 48 48" id="close" xmlns="http://www.w3.org/2000/svg"><path fill-rule="evenodd" clip-rule="evenodd" d="M23.414 8.586a2 2 0 010 2.828L12.828 22H40a2 2 0 110 4H12.828l10.586 10.586a2 2 0 01-2.828 2.828l-14-14a2 2 0 010-2.828l14-14a2 2 0 012.828 0z" fill="#fff"/></svg><svg fill="none" viewBox="0 0 24 24" id="feedback_close" xmlns="http://www.w3.org/2000/svg"><path d="M20 20L4 4m16 0L4 20" stroke="#454545" stroke-width="2" stroke-linecap="round"/></svg><svg fill="none" viewBox="0 0 20 20" id="header_location" xmlns="http://www.w3.org/2000/svg"><path d="M10.002 6.29c-.58 0-1.135.24-1.545.67-.41.428-.64 1.01-.64 1.617s.23 1.188.64 1.617c.41.43.965.67 1.545.67s1.135-.24 1.545-.67c.41-.429.64-1.01.64-1.617s-.23-1.189-.64-1.618a2.136 2.136 0 00-1.545-.67zM8.727 8.576c0-.354.135-.693.374-.944.239-.25.563-.39.9-.39.339 0 .663.14.902.39.24.25.373.59.373.944s-.134.693-.373.943-.563.391-.901.391c-.338 0-.662-.14-.901-.39a1.367 1.367 0 01-.374-.944zm6.007 4.003l-3.674 4.083c-.136.152-.3.272-.482.355a1.401 1.401 0 01-1.156 0 1.459 1.459 0 01-.482-.355L5.266 12.58h.014l-.006-.008-.008-.01A6.636 6.636 0 013.81 8.387c0-3.58 2.771-6.481 6.19-6.481 3.419 0 6.19 2.902 6.19 6.481a6.636 6.636 0 01-1.456 4.177l-.008.01-.006.007h.014zm-.708-.617a5.66 5.66 0 001.254-3.577c0-3.053-2.364-5.528-5.28-5.528-2.916 0-5.28 2.475-5.28 5.528a5.658 5.658 0 001.254 3.577l.112.138 3.516 3.908a.546.546 0 00.398.18.524.524 0 00.398-.18l3.516-3.908.112-.138z" fill="#004B91"/></svg><svg fill="none" viewBox="0 0 267 59" id="header_logo" xmlns="http://www.w3.org/2000/svg"><g clip-path="url(#iclip0_105_467)"><path d="M36.406 25.006l4.848-2.896.097-.058c.098-.057.194-.121.29-.17l.019-.014.878-.524-1.484-.872-.523-.3c-2.925-1.738-5.868-3.444-8.803-5.162-4.188 2.433-8.37 4.879-12.57 7.288-.112 3.936.058 7.872-.052 11.81.107 5.864-.033 11.732.056 17.595 2.203 1.27 4.387 2.573 6.579 3.862.039-9.727-.01-19.458.024-29.187 1.997-1.108 3.901-2.388 5.929-3.43 1.503.592 2.822 1.584 4.252 2.334l.46-.276z" fill="#A78B73"/><path d="M44.375 25.413c-2.223 1.341-4.473 2.635-6.699 3.968 0 1.327.006 2.64 0 3.96a324.281 324.281 0 00-5.775 3.48c.006 2.594 0 5.19.006 7.785 4.17-2.415 8.301-4.908 12.473-7.31.02-3.961.018-7.922-.005-11.883z" fill="#A78B73"/><path d="M62.34 18.02l-.508-.303c-3.463-2.136-6.997-4.147-10.496-6.23-.01-1.43-.014-2.86-.014-4.29 0-.427 0-.854.005-1.283.429-.491.855-.984 1.278-1.477-3.1 0-6.2-.073-9.296.04.388.422.794.828 1.205 1.232V7.373C40.174 5.066 35.999 2.41 31.7 0a7732.158 7732.158 0 01-30 17.65l-.661.387-1.036.604H2c1.504.042 3.009-.017 4.512 0-.011 8.502.015 16.999-.011 25.497 2.193 1.338 4.423 2.607 6.64 3.905.014-9.765.014-19.528 0-29.29 6.191-3.644 12.403-7.254 18.581-10.922 6.151 3.606 12.3 7.218 18.447 10.838-.008 7.266-.008 14.53 0 21.794-6.06 3.59-12.12 7.178-18.176 10.762 0 2.591-.01 5.182.005 7.775a36014.81 36014.81 0 0124.984-14.643c.004-8.595.004-17.19 0-25.787h6.276l-.918-.55zM90.517 19.721a7.032 7.032 0 01-2.005 4.925 6.786 6.786 0 01-4.838 2.04h-8.117l2.228-5.182h5.889a1.723 1.723 0 001.267-.506 1.786 1.786 0 00.53-1.276 1.812 1.812 0 00-.53-1.277 1.749 1.749 0 00-1.267-.506H74.92v17.502h-5.1V12.755h13.854c1.814.001 3.555.735 4.838 2.041a7.032 7.032 0 012.005 4.925zM110.889 35.435H91.791v-22.68h19.098v5.19H96.883v3.565h10.823v5.183H96.883v3.564h14.006v5.178zM117.254 35.435h-5.099v-22.68h5.099v22.68zm15.596 0h-5.092v-8.749h-9.867l2.228-5.182h7.64v-8.749h5.092l-.001 22.68zM156.406 24.095c0 3.132-1.088 5.805-3.263 8.02-2.174 2.214-4.8 3.32-7.877 3.32s-5.703-1.107-7.879-3.32c-2.175-2.214-3.263-4.887-3.262-8.02 0-3.13 1.087-5.803 3.262-8.018 2.175-2.214 4.801-3.322 7.879-3.322 3.076 0 5.702 1.108 7.877 3.322 2.176 2.214 3.263 4.887 3.263 8.018zm-5.092 0c0-1.013-.245-2.01-.714-2.903a6.114 6.114 0 00-1.975-2.218 5.952 5.952 0 00-5.677-.567 6.063 6.063 0 00-2.361 1.784 6.21 6.21 0 00-1.254 2.707 6.265 6.265 0 00.148 2.99c.29.968.811 1.85 1.516 2.564a6.01 6.01 0 003.096 1.688 5.941 5.941 0 003.495-.352 6.071 6.071 0 002.713-2.27 6.236 6.236 0 001.013-3.423zM178.37 28.474a7.035 7.035 0 01-2.007 4.924 6.786 6.786 0 01-4.838 2.042h-13.846V12.756h13.846c1.815 0 3.555.735 4.838 2.04a7.035 7.035 0 012.007 4.925c0 1.383-.616 2.841-1.847 4.374 1.23 1.535 1.846 2.994 1.847 4.38zm-5.1 0a1.78 1.78 0 00-1.079-1.65 1.716 1.716 0 00-.672-.133h-8.116l2.233-5.187h5.889a1.723 1.723 0 001.268-.506 1.793 1.793 0 00.529-1.276 1.808 1.808 0 00-.529-1.277 1.723 1.723 0 00-1.268-.505h-8.753v12.31h8.753a1.716 1.716 0 001.24-.516 1.775 1.775 0 00.511-1.26h-.006zM191.403 12.755h-4.125l-.496 1.175a966.421 966.421 0 01-4.309 9.961 1087.35 1087.35 0 01-5.073 11.447v.097h5.715l6.222-14.312 3.971 9.128h-7.313l2.228 5.19h13.044l-9.864-22.686zM202.516 35.435v-22.68h5.099v17.502h8.912V12.755h5.08v17.502h1.465v8.294h-5.093v-3.116h-15.463zM224.348 12.755h5.092v12.863l10.504-12.862h5.093v22.679h-5.093V22.572L229.44 35.435h-5.092v-22.68zM254.3 26.686h-1.149a6.788 6.788 0 01-4.839-2.04 7.034 7.034 0 01-2.005-4.925 7.034 7.034 0 012.005-4.925 6.788 6.788 0 014.839-2.04h13.845v22.679h-5.093V17.933h-8.752a1.722 1.722 0 00-1.268.506 1.78 1.78 0 00-.529 1.277 1.807 1.807 0 00.529 1.276 1.743 1.743 0 001.268.506h5.887l2.228 5.182-7.892 8.749h-7.067l7.993-8.743z" fill="#23272B"/><path d="M73.78 49.731c-1.137 0-2.08-.382-2.83-1.147a3.876 3.876 0 01-.849-1.304 3.93 3.93 0 01-.273-1.539c0-1.126.374-2.073 1.123-2.841.749-.768 1.692-1.15 2.83-1.15a3.772 3.772 0 011.896.496 3.57 3.57 0 011.356 1.34l-1.08.638a2.26 2.26 0 00-.88-.906 2.53 2.53 0 00-1.292-.336c-.806 0-1.46.26-1.96.781-.5.52-.75 1.18-.75 1.978 0 .8.25 1.46.75 1.98s1.154.78 1.96.78c.454.006.901-.11 1.296-.336.374-.207.679-.523.876-.907l1.08.627a3.53 3.53 0 01-1.346 1.35 3.76 3.76 0 01-1.907.496zM85.726 41.893V43.1h-2.134v6.487h-1.236v-6.484h-2.134v-1.207l5.504-.003zM92.131 41.893a2.435 2.435 0 011.787.724c.461.482.719 1.128.719 1.8 0 .673-.258 1.32-.719 1.801a2.42 2.42 0 01-.82.554 2.387 2.387 0 01-.967.177h-1.542v2.639h-1.245v-7.695h2.787zm0 3.87a1.183 1.183 0 00.907-.379 1.475 1.475 0 000-1.924 1.204 1.204 0 00-.907-.379h-1.542v2.682h1.542zM104.74 48.572a3.91 3.91 0 01-5.006.536 4.027 4.027 0 01-1.604-2.178 4.101 4.101 0 01.12-2.719c.348-.864.98-1.58 1.788-2.022a3.904 3.904 0 012.644-.406c.901.181 1.713.674 2.296 1.396a4.08 4.08 0 01.902 2.562 3.913 3.913 0 01-.282 1.536 3.852 3.852 0 01-.858 1.295zm-4.688-.857a2.715 2.715 0 001.907.785c.711 0 1.395-.281 1.906-.785.495-.534.772-1.24.772-1.974s-.277-1.44-.772-1.973a2.715 2.715 0 00-1.906-.786c-.712 0-1.396.282-1.907.786a2.9 2.9 0 00-.772 1.973 2.9 2.9 0 00.772 1.974zM114.249 49.59v-5.222l-3.557 5.221h-.973v-7.696h1.243v5.223l3.563-5.223h.973v7.696h-1.249zM124.618 41.893V43.1h-2.127v6.487h-1.243v-6.484h-2.135v-1.207l5.505-.003zM129.478 48.38h3.348v1.207h-4.59v-7.694h4.536V43.1h-3.294v2.002h3.025V46.3h-3.025v2.08zM136.045 49.59v-1.166c.474.066.83-.052 1.067-.352s.356-.876.356-1.726v-4.453h5.066v7.696h-1.243v-6.486h-2.58v3.221a5.941 5.941 0 01-.212 1.705 2.207 2.207 0 01-.6 1.037 2 2 0 01-.83.463 2.91 2.91 0 01-1.024.06zM149.524 44.527c.331-.009.661.052.968.177.307.126.586.315.819.554.461.482.719 1.128.719 1.8 0 .673-.258 1.32-.719 1.8a2.435 2.435 0 01-.82.55 2.395 2.395 0 01-.967.175h-2.787v-7.69h1.242v2.634h1.545zm0 3.87a1.18 1.18 0 00.907-.38 1.47 1.47 0 00.356-.961 1.47 1.47 0 00-.356-.962 1.191 1.191 0 00-.907-.38h-1.541v2.688l1.541-.005zM160.292 41.893h1.242v7.696h-1.242v-3.331h-3.24v3.331h-1.243v-7.696h1.243v3.155h3.24v-3.155zM170.671 49.59l-.529-1.55h-3.219l-.529 1.55h-1.351l2.743-7.697h1.491l2.727 7.696h-1.333zm-3.337-2.738h2.398l-1.199-3.474-1.199 3.474zM180.738 41.893v7.696h-1.243v-2.804h-1.199l-1.825 2.804h-1.404l1.922-2.914a2.373 2.373 0 01-1.226-.873 2.335 2.335 0 01-.48-1.434 2.485 2.485 0 01.707-1.754 2.386 2.386 0 011.723-.72h3.025zm-3.025 3.76h1.778V43.08h-1.778a1.091 1.091 0 00-.842.374 1.37 1.37 0 00-.346.912c0 .338.123.663.346.913a1.116 1.116 0 00.842.375zM196.052 49.59h-1.482l-2.981-3.662v3.661h-1.24v-7.696h1.243v3.452l2.873-3.452h1.479l-3.056 3.75 3.164 3.946zM205.886 48.572a3.91 3.91 0 01-5.007.536 4.03 4.03 0 01-1.604-2.178 4.107 4.107 0 01.12-2.719 4.012 4.012 0 011.789-2.022 3.903 3.903 0 012.644-.406 3.95 3.95 0 012.295 1.396c.584.722.902 1.628.902 2.562a3.912 3.912 0 01-.281 1.536 3.85 3.85 0 01-.858 1.295zm-4.688-.857a2.715 2.715 0 001.906.785c.712 0 1.395-.281 1.907-.785.496-.533.773-1.24.773-1.974s-.277-1.44-.773-1.973a2.717 2.717 0 00-1.907-.786c-.711 0-1.395.282-1.906.786a2.898 2.898 0 00-.772 1.973c0 .734.276 1.44.772 1.974zM218.096 41.893v7.696h-1.243v-5.486l-2.3 3.87h-.151l-2.3-3.88v5.496h-1.243v-7.696h1.34l2.278 3.848 2.29-3.848h1.329zM227.87 41.893v7.696h-1.242v-6.486h-3.083v6.486h-1.241v-7.696h5.566zM237.008 49.59l-.53-1.55h-3.219l-.528 1.55h-1.351l2.744-7.697h1.491l2.727 7.696h-1.334zm-3.338-2.738h2.398l-1.199-3.474-1.199 3.474zM246.339 41.893h1.238v7.696h-1.241v-3.331h-3.241v3.331h-1.242v-7.696h1.242v3.155h3.241l.003-3.155zM256.33 49.59v-5.222l-3.565 5.221h-.972v-7.696h1.239v5.223l3.558-5.223h.972v7.696h-1.232zM267 41.893v7.696h-1.242v-2.804h-1.198l-1.827 2.804h-1.4l1.923-2.914a2.373 2.373 0 01-1.226-.873 2.332 2.332 0 01-.474-1.434 2.486 2.486 0 01.707-1.754 2.38 2.38 0 011.723-.72H267zm-3.024 3.76h1.779V43.08h-1.779a1.096 1.096 0 00-.843.374 1.375 1.375 0 000 1.825 1.11 1.11 0 00.843.375z" fill="#A78B73"/></g><defs><clipPath id="iclip0_105_467"><path fill="#fff" d="M0 0h267v59H0z"/></clipPath></defs></svg><svg fill="none" viewBox="0 0 20 20" id="header_phone" xmlns="http://www.w3.org/2000/svg"><path d="M17.312 12.523l-3.69-1.653a1.095 1.095 0 00-1.082.128l-1.93 1.64a.146.146 0 01-.13.005c-1.24-.599-2.525-1.875-3.125-3.098a.15.15 0 010-.131L9 7.461a1.094 1.094 0 00.12-1.082L7.48 2.695A1.094 1.094 0 006.34 2.04a4.237 4.237 0 00-3.685 4.21c0 6.117 4.977 11.094 11.094 11.094a4.238 4.238 0 004.21-3.685 1.094 1.094 0 00-.648-1.136zm-3.562 3.883c-5.6 0-10.156-4.556-10.156-10.156a3.3 3.3 0 012.865-3.281h.018a.156.156 0 01.143.102l1.649 3.68a.156.156 0 010 .131L6.619 8.84a1.094 1.094 0 00-.105 1.117c.694 1.419 2.124 2.837 3.558 3.53a1.095 1.095 0 001.12-.11l1.928-1.641a.152.152 0 01.125-.008l3.69 1.654a.157.157 0 01.096.156 3.3 3.3 0 01-3.281 2.868z" fill="#004B91"/></svg><svg fill="none" viewBox="0 0 32 32" id="header_star" xmlns="http://www.w3.org/2000/svg"><path d="M15.573.38c.06-.506.794-.506.854 0l.503 4.242A11.937 11.937 0 0027.378 15.07l4.243.503c.505.06.505.794 0 .854l-4.243.503A11.937 11.937 0 0016.93 27.378l-.503 4.243c-.06.505-.794.505-.854 0l-.503-4.243A11.937 11.937 0 004.622 16.93l-4.243-.503c-.505-.06-.505-.794 0-.854l4.243-.503A11.937 11.937 0 0015.07 4.622l.503-4.243z" fill="#23272A"/></svg><svg fill="none" viewBox="0 0 20 20" id="header_time" xmlns="http://www.w3.org/2000/svg"><path d="M10.476 17.143a7.62 7.62 0 110-15.238 7.62 7.62 0 010 15.238zm0-14.15a6.53 6.53 0 100 13.062 6.53 6.53 0 000-13.062z" fill="#004B91"/><path d="M12.566 13.333L9.524 10.14V4.762h1.088v4.903l2.721 2.863-.767.805z" fill="#004B91"/></svg><svg fill="none" viewBox="0 0 64 64" id="icons8-menu" xmlns="http://www.w3.org/2000/svg"><path d="M49.778 42.667a3.556 3.556 0 010 7.11H14.222a3.556 3.556 0 010-7.11h35.556zm0-14.223a3.556 3.556 0 010 7.112H14.222a3.556 3.556 0 010-7.112h35.556zm0-14.222a3.556 3.556 0 010 7.111H14.222a3.556 3.556 0 010-7.11h35.556z" fill="#fff"/></svg><svg fill="none" viewBox="0 0 48 48" id="icons8-settings" xmlns="http://www.w3.org/2000/svg"><path d="M39.254 21.017a1.5 1.5 0 011.246 1.479v3.009a1.5 1.5 0 01-1.246 1.478l-2.598.447a13.016 13.016 0 01-1.28 3.096l1.52 2.152a1.5 1.5 0 01-.165 1.925l-2.128 2.128a1.5 1.5 0 01-1.925.164l-2.151-1.518a13.05 13.05 0 01-3.097 1.28l-.447 2.598a1.5 1.5 0 01-1.479 1.245h-3.009a1.5 1.5 0 01-1.478-1.246l-.447-2.598a13.015 13.015 0 01-3.096-1.28l-2.152 1.519a1.5 1.5 0 01-1.925-.165l-2.128-2.127a1.5 1.5 0 01-.165-1.926l1.52-2.151a13.017 13.017 0 01-1.28-3.097l-2.598-.447A1.498 1.498 0 017.5 25.505v-3.01a1.5 1.5 0 011.246-1.478l2.598-.447a13.015 13.015 0 011.28-3.096l-1.52-2.152a1.5 1.5 0 01.165-1.925l2.127-2.128a1.5 1.5 0 011.926-.165l2.152 1.52a13.044 13.044 0 013.096-1.28l.447-2.598A1.5 1.5 0 0122.496 7.5h3.009a1.5 1.5 0 011.478 1.246l.447 2.598c1.096.296 2.134.726 3.096 1.28l2.152-1.52a1.5 1.5 0 011.925.165l2.128 2.127a1.5 1.5 0 01.164 1.926l-1.519 2.152c.553.962.984 2 1.28 3.096l2.598.447zM24 30a6 6 0 100-12 6 6 0 000 12z" fill="#fff"/></svg><svg fill="none" viewBox="0 0 362 36" id="main_arrow" xmlns="http://www.w3.org/2000/svg"><path d="M182 1V.5 1zM0 33.62l3.697-4.435 1.992 5.419L0 33.62zm361-.002l-.135.482h-.001l-.004-.002a10.857 10.857 0 00-.075-.021l-.237-.066-.934-.259c-.822-.227-2.035-.56-3.603-.985l.261-.966a769.53 769.53 0 014.545 1.247l.238.066a5.362 5.362 0 01.075.022h.005l.001.001-.136.481zm-14.789-3.458c-2.91-.76-6.193-1.609-9.796-2.523l.246-.969c3.605.915 6.891 1.763 9.803 2.525l-.253.967zm-19.643-4.983c-3.122-.768-6.401-1.564-9.813-2.379l.232-.972c3.415.814 6.696 1.611 9.82 2.38l-.239.97zm-19.683-4.696c-3.211-.742-6.509-1.491-9.877-2.242l.217-.976c3.371.751 6.671 1.501 9.885 2.243l-.225.975zm-19.782-4.407c-3.26-.698-6.566-1.392-9.907-2.076l.201-.98c3.343.685 6.653 1.38 9.915 2.079l-.209.978zm-19.845-4.062a932.575 932.575 0 00-9.952-1.883l.18-.983c3.333.61 6.658 1.24 9.963 1.884l-.191.982zm-19.926-3.65c-3.34-.57-6.674-1.117-9.99-1.636l.154-.988c3.321.52 6.66 1.067 10.005 1.638l-.169.986zm-20.011-3.12c-3.386-.473-6.738-.91-10.044-1.305l.119-.993c3.312.397 6.671.834 10.063 1.307l-.138.99zM207.228 2.85c-3.446-.33-6.82-.605-10.106-.819l.066-.998c3.296.215 6.68.491 10.135.821l-.095.996zm-20.196-1.285c-1.712-.044-3.39-.066-5.032-.066v-1c1.651 0 3.338.022 5.058.066l-.026 1zM182 1.5c-1.726 0-3.448.01-5.165.03l-.012-1C178.544.51 180.27.5 182 .5v1zm-15.471.266a476.89 476.89 0 00-10.296.463l-.056-.999c3.414-.19 6.855-.345 10.318-.463l.034.999zM145.951 2.91c-3.459.265-6.888.564-10.282.892l-.096-.995c3.4-.33 6.835-.629 10.302-.894l.076.997zM125.41 4.899c-3.453.402-6.865.834-10.23 1.291l-.135-.99c3.372-.459 6.789-.891 10.249-1.295l.116.994zM104.987 7.67a573.81 573.81 0 00-10.186 1.668l-.17-.985a576.363 576.363 0 0110.203-1.671l.153.988zm-20.34 3.518c-3.44.657-6.805 1.332-10.09 2.02l-.204-.98c3.29-.688 6.66-1.364 10.106-2.023l.188.983zm-20.191 4.223a603.001 603.001 0 00-10.007 2.362l-.238-.97a603.785 603.785 0 0110.023-2.368l.222.976zm-20.032 4.911c-3.494.921-6.817 1.831-9.955 2.718l-.272-.962c3.144-.889 6.472-1.8 9.972-2.723l.255.967zM24.57 25.938a502.49 502.49 0 00-9.797 3.073l-.31-.95a503.16 503.16 0 019.817-3.08l.29.957zm-19.61 6.4c-.196.068-.385.136-.568.201l-.336-.942.57-.202.333.942zM182 1V0v1zM0 33.62l7.404-8.86 3.972 10.842L0 33.62zm361-.002l-.27.963h-.001-.001l-.003-.001a.415.415 0 00-.015-.005l-.059-.016-.237-.066-.933-.26c-.821-.226-2.034-.56-3.601-.984l.523-1.93a781.751 781.751 0 014.847 1.33l.016.005.004.001h.001l-.271.963zm-14.916-2.974c-2.908-.76-6.191-1.608-9.792-2.522l.492-1.939c3.606.915 6.893 1.764 9.806 2.526l-.506 1.935zm-19.636-4.982c-3.12-.768-6.398-1.563-9.81-2.377l.465-1.946c3.416.815 6.698 1.612 9.823 2.381l-.478 1.942zm-19.676-4.694c-3.21-.741-6.506-1.49-9.873-2.24l.435-1.953c3.372.752 6.674 1.502 9.888 2.244l-.45 1.949zm-19.774-4.405c-3.258-.697-6.563-1.391-9.902-2.075l.401-1.96c3.345.686 6.656 1.38 9.92 2.08l-.419 1.955zm-19.835-4.06a936.384 936.384 0 00-9.947-1.882l.36-1.967c3.335.611 6.662 1.242 9.969 1.885l-.382 1.964zm-19.915-3.648a723.15 723.15 0 00-9.983-1.635l.308-1.976c3.324.52 6.665 1.068 10.012 1.64l-.337 1.97zm-19.996-3.118a519.157 519.157 0 00-10.034-1.304l.237-1.985c3.316.396 6.678.834 10.073 1.308l-.276 1.981zM207.18 3.349a335.676 335.676 0 00-10.09-.818l.13-1.996c3.302.216 6.691.492 10.15.823l-.19 1.99zm-20.16-1.284A198.734 198.734 0 00182 2V0c1.655 0 3.347.022 5.07.066l-.05 2zM182 2c-1.724 0-3.444.01-5.159.03l-.024-2C178.54.01 180.268 0 182 0v2zm-15.454.266c-3.452.117-6.882.272-10.285.462l-.112-1.997c3.418-.19 6.862-.346 10.329-.464l.068 1.999zm-20.557 1.142c-3.456.265-6.881.564-10.271.892l-.193-1.99c3.403-.33 6.842-.63 10.312-.896l.152 1.994zm-20.521 1.987c-3.45.403-6.858.834-10.221 1.29l-.269-1.981c3.375-.458 6.795-.891 10.258-1.295l.232 1.986zm-20.405 2.77c-3.449.533-6.843 1.09-10.176 1.667l-.341-1.97c3.345-.58 6.75-1.139 10.211-1.674l.306 1.977zM84.741 11.68c-3.437.657-6.8 1.331-10.081 2.018l-.41-1.958a597.7 597.7 0 0110.115-2.025l.376 1.965zM64.567 15.9a603.234 603.234 0 00-10 2.36l-.475-1.943a604.796 604.796 0 0110.032-2.368l.443 1.95zm-20.015 4.907c-3.492.92-6.812 1.83-9.947 2.715l-.543-1.924a584.308 584.308 0 019.98-2.725l.51 1.934zm-19.837 5.608a501.433 501.433 0 00-9.787 3.07l-.619-1.901a504.005 504.005 0 019.826-3.083l.58 1.914z" fill="#fff"/></svg><svg fill="none" viewBox="0 0 82 82" id="official" xmlns="http://www.w3.org/2000/svg"><circle cx="41" cy="41" r="40.5" stroke="#333"/><path fill-rule="evenodd" clip-rule="evenodd" d="M40.546 23.13a.856.856 0 01.908 0l3.652 2.28a16.285 16.285 0 006.61 2.35l3.105.39a.857.857 0 01.75.85v11.07a18 18 0 01-8.46 15.263l-5.657 3.537a.856.856 0 01-.908 0l-5.657-3.537a18 18 0 01-8.46-15.264V29a.857.857 0 01.75-.85l3.105-.39a16.286 16.286 0 006.612-2.348l3.65-2.282zM41 24.87l-3.196 1.997a18 18 0 01-7.308 2.597l-2.353.291V40.07a16.286 16.286 0 007.654 13.809L41 57.13l5.203-3.252a16.285 16.285 0 007.654-13.81V29.758l-2.354-.293a18 18 0 01-7.308-2.598L41 24.87z" fill="#333"/><path fill-rule="evenodd" clip-rule="evenodd" d="M47.607 36.464l-6.857 6.857a.857.857 0 01-1.212 0l-3.429-3.428 1.212-1.212 2.822 2.821 6.252-6.252 1.212 1.214z" fill="#333"/></svg><svg fill="none" viewBox="0 0 82 82" id="price" xmlns="http://www.w3.org/2000/svg"><circle cx="41" cy="41" r="40.5" stroke="#333"/><g clip-path="url(#qclip0_5_224)" fill="#333"><path d="M34.333 57.667a3.362 3.362 0 01-2.356-.977l-10-10A3.362 3.362 0 0121 44.333c0-.876.357-1.735.977-2.356l15-15A3.362 3.362 0 0139.333 26h10c.215 0 .419.025.619.075 1.516.232 2.715 1.638 2.715 3.258v10c0 .877-.357 1.735-.977 2.357l-15 15a3.362 3.362 0 01-2.357.977zm5-30c-.438 0-.866.178-1.178.488l-15 15c-.31.312-.488.74-.488 1.178 0 .439.178.867.488 1.179l10 10c.622.621 1.733.621 2.355 0l15-15c.312-.312.49-.74.49-1.179v-10a1.65 1.65 0 00-1.378-1.626 1.129 1.129 0 00-.289-.04h-10z"/><path d="M57.55 61H42.783a3.514 3.514 0 01-2.43-.968 3.317 3.317 0 01-1.02-2.365v-5.634a.84.84 0 01.244-.59L50.51 40.51c.312-.31.49-.738.49-1.177v-10a1.65 1.65 0 00-1.378-1.626.833.833 0 01-.025-1.644c1.083-.2 2.21.137 3 .905l7.38 7.08A3.32 3.32 0 0161 36.417v21.25a3.316 3.316 0 01-1.02 2.365 3.513 3.513 0 01-2.43.968zM41 52.378v5.289c0 .426.187.853.513 1.168.344.323.799.502 1.27.498H57.55c.48 0 .942-.181 1.27-.498a1.64 1.64 0 00.513-1.168v-21.25a1.64 1.64 0 00-.513-1.169l-6.153-5.903v9.988c0 .877-.357 1.735-.977 2.357L41 52.378z"/><path d="M46.833 34.333a2.503 2.503 0 01-2.5-2.5c0-1.378 1.122-2.5 2.5-2.5 1.379 0 2.5 1.122 2.5 2.5 0 1.379-1.121 2.5-2.5 2.5zm0-3.333a.833.833 0 100 1.666.833.833 0 000-1.666z"/><path d="M56.833 32.667a.833.833 0 01-.833-.834v-5a4.172 4.172 0 00-4.167-4.166 4.172 4.172 0 00-4.166 4.166v3.334a.833.833 0 01-1.667 0v-3.334A5.84 5.84 0 0151.833 21a5.84 5.84 0 015.834 5.833v5a.833.833 0 01-.834.834z"/></g><defs><clipPath id="qclip0_5_224"><path fill="#fff" transform="translate(21 21)" d="M0 0h40v40H0z"/></clipPath></defs></svg><svg fill="none" viewBox="0 0 82 82" id="sell" xmlns="http://www.w3.org/2000/svg"><circle cx="41" cy="41" r="40.5" stroke="#333"/><path d="M52.09 48.81c1.498-.016 2.806-1.065 3.19-2.569l3.692-14.263a.876.876 0 00-.588-1.066.951.951 0 00-.212-.032H30.406l-1.889-7.238a.836.836 0 00-.8-.642H23v1.732h4.06l1.826 7.075a.618.618 0 000 .17l3.761 14.313c.024.114.063.236.102.35l1.27 4.797c-1.223.675-2.053 2.009-2.053 3.546 0 2.22 1.731 4.017 3.871 4.017 2.14 0 3.871-1.797 3.871-4.017 0-.691-.172-1.35-.47-1.92-.07-.13-.14-.26-.227-.39h9.851a4.124 4.124 0 00-.705 2.31c0 2.22 1.732 4.017 3.871 4.017 2.14 0 3.872-1.797 3.872-4.017 0-1.05-.384-2-1.02-2.716a3.704 3.704 0 00-2.805-1.326H35.688l-.588-2.236c.251.065.51.106.768.106h16.223zm-.054 3.863c1.23 0 2.226 1.033 2.226 2.31 0 1.277-.996 2.31-2.226 2.31s-2.226-1.033-2.226-2.31c0-1.277.996-2.31 2.226-2.31zm-16.199 0c1.23 0 2.218 1.041 2.218 2.31 0 1.277-.995 2.31-2.226 2.31-1.23 0-2.218-1.033-2.218-2.31 0-1.277.996-2.31 2.226-2.31zm-1.49-6.692l-1.872-7.108-1.67-6.245h26.247l-3.394 13.223c-.188.756-.838 1.285-1.59 1.3H35.852a1.7 1.7 0 01-1.505-1.17z" fill="#333"/></svg></svg>